IDResults
version=1
nRows=13
nColumns=18
inDegrees=yes
endheader
time	ground_thorax_rot_x	ground_thorax_rot_y	ground_thorax_rot_z	ground_thorax_tx	ground_thorax_ty	ground_thorax_tz	clav_prot	clav_elev	scapula_abduction	scapula_elevation	scapula_upward_rot	scapula_winging	plane_elv	shoulder_elv	axial_rot	elbow_flexion	pro_sup
      2.06000000	      0.51728761	    -13.39500382	      3.58846186	     -0.06614106	      0.04954380	      0.01693614	    -22.00837601	     -0.90664573	      8.70639383	     -8.76209702	     53.84366893	      6.56532202	    -26.00000000	     57.49820422	     26.27018781	     23.18210732	   -178.17937528
      2.08000000	      0.51728761	    -13.19039286	      3.44891078	     -0.06562568	      0.04914162	      0.01711172	    -21.92754986	     -1.27771389	      8.31284713	     -8.96645011	     53.21245294	      6.72943038	    -26.00000000	     57.61823944	     26.12774187	     23.69380257	   -178.11796877
      2.10000000	      0.51728761	    -13.00264158	      3.27829222	     -0.06501145	      0.04865659	      0.01741672	    -21.86358746	     -1.61064043	      7.85571689	     -9.14272819	     52.55451473	      6.88982648	    -26.00000000	     57.61554897	     25.56151784	     24.28249594	   -177.38946849
      2.12000000	      0.51728761	    -12.76509763	      3.12325725	     -0.06447815	      0.04815897	      0.01770404	    -21.81010941	     -1.98456546	      7.34821797	     -9.34092811	     51.85171536	      7.07524018	    -26.00000000	     57.58127858	     25.06019697	     24.82297866	   -176.50330676
      2.14000000	      0.51728761	    -12.50429523	      2.96129645	     -0.06392420	      0.04762889	      0.01800126	    -21.75622602	     -2.38106147	      6.79342634	     -9.54710773	     51.09045433	      7.28061343	    -26.00000000	     57.52499549	     24.53172706	     25.37783485	   -175.50095634
      2.16000000	      0.51728761	    -12.37785693	      2.83814944	     -0.06345174	      0.04696989	      0.01835085	    -21.64083155	     -2.74586001	      6.43467962	     -9.73325965	     50.41758275	      7.46570332	    -26.00000000	     57.32392751	     24.46401172	     25.70143704	   -175.37018065
      2.18000000	      0.51728761	    -11.92618302	      2.65614671	     -0.06294349	      0.04650523	      0.01865326	    -21.65407175	     -3.23335520	      5.58160367	     -9.97945266	     49.44409839	      7.74891104	    -26.00000000	     57.25617295	     23.35254180	     26.38856022	   -173.07153287
      2.20000000	      0.51728761	    -11.61397439	      2.49719173	     -0.06248570	      0.04593017	      0.01897334	    -21.58341092	     -3.72423273	      4.95312797	    -10.22483549	     48.53533774	      8.02754947	    -26.00000000	     57.13208327	     22.82783174	     26.85323907	   -172.34071135
      2.22000000	      0.51728761	    -11.29549021	      2.34587256	     -0.06204527	      0.04531792	      0.01933195	    -21.53766772	     -4.19361914	      4.27349715	    -10.45225417	     47.61963218	      8.31129719	    -26.00000000	     56.87713660	     22.20151667	     27.27360617	   -171.15356365
      2.24000000	      0.51728761	    -11.26332706	      2.27648735	     -0.06168212	      0.04454681	      0.01980793	    -21.37049741	     -4.52916091	      3.96518483	    -10.59946204	     46.89042370	      8.51191690	    -26.00000000	     56.33183904	     22.14965671	     27.33340231	   -171.02726323
      2.26000000	      0.51728761	    -10.65929976	      2.07021036	     -0.06125739	      0.04405026	      0.02017152	    -21.51113456	     -5.08220710	      2.81954331	    -10.86576527	     45.80592211	      8.89183806	    -26.00000000	     55.96045605	     20.94846742	     27.88907926	   -167.45240187
      2.28000000	      0.51728761	    -10.64608974	      1.98329226	     -0.06085154	      0.04325835	      0.02065201	    -21.32804513	     -5.42748378	      2.48992221	    -11.00516024	     45.01070062	      9.11640027	    -26.00000000	     55.32523766	     20.91794745	     27.90263991	   -167.39309753
      2.30000000	      0.51728761	    -10.01812071	      1.76906992	     -0.06046537	      0.04277624	      0.02100605	    -21.50723762	     -6.03248998	      1.28316255	    -11.29540214	     43.90257705	      9.54851962	    -26.00000000	     54.87379244	     19.97732021	     28.35810549	   -164.68496013
